<?xml version="1.0" encoding="UTF-8"?>
<!-- Generated by Pixelmator Pro 3.7 -->
<svg width="2048" height="2048" viewBox="0 0 2048 2048" xmlns="http://www.w3.org/2000/svg">
    <linearGradient id="linearGradient1" x1="1034.511441" y1="2012.663261" x2="1034.511441" y2="34.256256" gradientUnits="userSpaceOnUse">
        <stop offset="0" stop-color="#007cff" stop-opacity="1"/>
        <stop offset="1" stop-color="#00bcff" stop-opacity="1"/>
    </linearGradient>
    <filter id="filter1" x="0" y="0" width="2048" height="2048" filterUnits="userSpaceOnUse" primitiveUnits="userSpaceOnUse" color-interpolation-filters="sRGB">
        <feGaussianBlur stdDeviation="34"/>
        <feOffset dx="-0" dy="37" result="offsetblur"/>
        <feFlood flood-color="#000000" flood-opacity="0.798583"/>
        <feComposite in2="offsetblur" operator="in"/>
        <feMerge>
            <feMergeNode/>
            <feMergeNode in="SourceGraphic"/>
        </feMerge>
    </filter>
    <path id="Path" fill="url(#linearGradient1)" stroke="none" filter="url(#filter1)" d="M 843.70813 1677.900635 L 834.967407 1677.895508 C 828.073975 1678.677002 828.073975 1678.677002 821.794312 1684.956787 C 822.540283 1694.984863 824.47467 1702.782471 828.628174 1711.944458 L 833.311157 1720.157471 L 838.602783 1729.528076 L 844.362 1739.511719 C 850.46875 1750.244263 856.581665 1760.972534 862.753479 1771.667725 L 868.892151 1782.292358 C 891.183899 1821.005249 913.887085 1859.446655 936.987732 1897.682129 C 951.72644 1922.013672 965.808167 1946.555786 979.179626 1971.665039 C 982.934021 1978.944702 986.728333 1986.164307 990.766296 1993.290649 C 997.623657 2003.708862 1005.115845 2010.223389 1017.238098 2013.280396 L 1024.118774 2013.268066 L 1030.974976 2013.476563 C 1051.025635 2008.175781 1051.025635 2008.175781 1073.610718 1970.18396 L 1079.458862 1960.086792 C 1096.767578 1930.712646 1113.742554 1901.150513 1130.427002 1871.417236 C 1138.446899 1857.096069 1146.490723 1842.793335 1154.680542 1828.568359 C 1162.471313 1815.051025 1170.213623 1801.507324 1177.904419 1787.932739 L 1182.87793 1779.152466 C 1188.633057 1769.052734 1194.36792 1758.944214 1200.036743 1748.795654 L 1205.641846 1738.726807 C 1206.60498 1737.039673 1207.564819 1735.381836 1208.512085 1733.74585 C 1218.281738 1716.871338 1226.711548 1702.310913 1223.696045 1681.816895 C 1220.556152 1678.677002 1220.556152 1678.677002 1214.057739 1678.273193 L 1205.320679 1678.257202 L 1195.327881 1678.216553 L 1184.270752 1678.220947 C 1172.090576 1678.187256 1159.9104 1678.15686 1147.730103 1678.153076 C 1138.995361 1678.151489 1130.260498 1678.145752 1121.525879 1678.134521 C 1101.036011 1678.108521 1080.546021 1678.092529 1060.055908 1678.094482 C 1038.724487 1678.09668 1017.393188 1678.080322 996.061707 1678.030762 C 977.63501 1677.988037 959.208313 1677.960693 940.781555 1677.957764 L 936.972717 1677.958252 C 927.268555 1677.959717 917.564819 1677.961182 907.86084 1677.93689 C 897.358215 1677.905151 886.856262 1677.886597 876.353455 1677.89624 L 864.765686 1677.914307 L 853.727844 1677.86084 L 843.70813 1677.900635 Z M 844.265198 798.13916 L 833.914246 798.205444 C 798.256836 798.281738 775.958679 816.474487 758.356445 845.986816 L 753.353638 854.726318 C 747.577759 864.504272 741.817383 874.288452 736.119812 884.112061 C 730.977539 892.991211 725.808655 901.853027 720.619324 910.70459 C 714.09668 921.823364 707.571777 932.940308 701.071167 944.071655 C 685.701599 970.405151 670.128418 996.601074 654.272156 1022.644409 L 650.981079 1028.046387 C 646.651978 1035.156006 642.322388 1042.265381 637.991699 1049.374023 C 627.227661 1067.037842 616.473938 1084.707275 605.778809 1102.412842 C 603.711548 1105.838989 601.704834 1109.164063 599.698425 1112.489258 C 585.024902 1136.640503 566.435669 1161.706055 561.405029 1189.907471 L 561.525513 1200.209717 C 561.327393 1217.192383 565.871948 1227.668701 574.323669 1241.900269 C 577.386414 1246.926025 580.393127 1251.986572 583.345703 1257.078125 C 586.521301 1262.589722 589.713684 1268.091797 592.920532 1273.585205 L 598.156006 1282.531982 C 614.835632 1311.082031 631.555908 1339.608643 648.281982 1368.131592 C 662.60022 1392.548096 676.919067 1416.963867 691.195496 1441.404541 L 696.47998 1450.453857 C 705.628235 1466.085693 714.755737 1481.726074 723.695313 1497.478516 C 726.794922 1502.965088 729.895142 1508.451416 733.006348 1513.931519 C 736.064087 1519.311768 739.117859 1524.694336 742.171692 1530.076904 C 753.292236 1550.009766 764.48761 1568.953003 779.182495 1586.468628 C 798.640137 1602.669922 815.437866 1605.53479 840.140869 1605.712769 C 846.103638 1605.659302 852.066772 1605.608154 858.029846 1605.617554 C 869.087158 1605.662354 880.142761 1605.662109 891.200134 1605.602295 C 902.948547 1605.536743 914.696472 1605.519409 926.445129 1605.520874 C 946.138 1605.524902 965.830444 1605.491943 985.523071 1605.411133 C 1008.426147 1605.313599 1031.328613 1605.248535 1054.231934 1605.252319 C 1078.841309 1605.25708 1103.450439 1605.231934 1128.059692 1605.174805 C 1135.107422 1605.158447 1142.155151 1605.145264 1149.202637 1605.140991 C 1160.471313 1605.136963 1171.739502 1605.122559 1183.007813 1605.068115 C 1187.16394 1605.0448 1191.32019 1605.023682 1195.476318 1605.005249 L 1207.252686 1605.013672 L 1218.062866 1604.934082 C 1227.435059 1604.902588 1227.435059 1604.902588 1235.911987 1604.109131 C 1266.806519 1593.673584 1266.806519 1593.673584 1299.581787 1536.981323 C 1303.146118 1530.743408 1306.725952 1524.514526 1310.317871 1518.29248 L 1316.173828 1508.158936 C 1326.703125 1489.88916 1337.337036 1471.683105 1348.014038 1453.499268 C 1353.581787 1444.020752 1359.145996 1434.540039 1364.707031 1425.057495 L 1368.022827 1419.402222 C 1379.802368 1399.312256 1391.5354 1379.195068 1403.255615 1359.070313 C 1413.764038 1341.008423 1424.310669 1322.973145 1435.018066 1305.02832 C 1443.434448 1290.929321 1451.793823 1276.799316 1460.061523 1262.612549 L 1464.177979 1255.541016 C 1471.268311 1243.525879 1478.06604 1231.744385 1482.685913 1218.525024 C 1484.554077 1209.367065 1485.879395 1202.870117 1485.684326 1196.419312 C 1485.208252 1180.669922 1475.6698 1165.19458 1442.844238 1111.937378 C 1440.56897 1108.246094 1438.299805 1104.551025 1436.036255 1100.852539 C 1430.168213 1091.246826 1424.292969 1081.645874 1418.401855 1072.054199 C 1395.028198 1034.006348 1371.765625 995.907959 1349.21814 957.363281 C 1345.88147 951.654663 1342.543457 945.946655 1339.199829 940.241577 C 1336.989014 936.472046 1334.778442 932.702271 1332.568115 928.932373 L 1329.259521 923.288086 C 1322.680542 912.064697 1316.119995 900.831543 1309.626343 889.558594 C 1306.468384 884.07373 1303.303833 878.593018 1300.116943 873.124878 C 1297.094238 867.956665 1294.072388 862.787354 1291.050659 857.618286 C 1284.41272 845.956787 1277.811646 834.49646 1269.843506 823.687012 C 1248.918091 802.989502 1223.286987 797.96875 1194.868652 797.789429 L 1183.687988 797.861084 C 1171.165894 797.825195 1158.644653 797.796265 1146.122559 797.842529 C 1134.901611 797.885498 1123.681152 797.893433 1112.460205 797.887939 C 1093.645142 797.877686 1074.829956 797.89624 1056.014893 797.950562 C 1034.143799 798.016357 1012.273132 798.054443 990.401978 798.035645 C 969.160645 798.01709 947.919556 798.018433 926.678345 798.052734 L 925.981812 798.053833 C 917.215027 798.068115 908.448181 798.082397 899.681396 798.079224 C 888.922974 798.071289 878.164856 798.073242 867.406433 798.11438 L 855.483643 798.162231 L 844.265198 798.13916 Z M 416.752686 532.62915 C 430.736572 540.202637 444.361542 548.337158 457.963287 556.570435 C 461.775024 558.855713 465.587738 561.139038 469.401245 563.421265 C 490.410339 576.021851 511.31366 588.787842 532.013611 601.890747 C 551.25946 614.049805 570.746155 625.806885 590.225159 637.586304 C 708.451294 709.101196 708.451294 709.101196 717.455322 742.557983 C 721.039307 775.483398 704.431641 800.573364 687.172424 826.647461 C 684.94281 830.015991 682.702271 833.400757 680.492981 836.821167 C 670.716125 852.087524 661.38385 867.618164 652.017883 883.138916 C 648.678955 888.661255 645.324951 894.17395 641.966125 899.684204 C 624.612 928.167236 607.588318 956.838135 590.622253 985.553467 C 571.405762 1018.075928 551.784729 1050.279907 531.593567 1082.209961 C 513.63916 1110.75 496.62912 1139.817627 479.775177 1169.016602 C 468.797852 1187.951904 457.595154 1206.686768 445.845428 1225.151611 L 442.408997 1230.601563 C 419.893951 1265.595215 386.169739 1293.40918 345.357697 1303.660278 C 310.589478 1310.385742 280.163116 1292.765869 251.321411 1275.009033 C 245.287781 1271.369263 239.253265 1267.730713 233.218185 1264.093262 L 223.326401 1258.092529 C 209.604965 1249.811523 195.813263 1241.652588 182.016647 1233.497803 C 164.818527 1223.331055 147.647537 1213.119629 130.487747 1202.888428 C 120.688766 1197.049072 110.882706 1191.223022 101.048279 1185.443359 C 91.135612 1179.614624 81.24968 1173.743042 71.368347 1167.86145 L 62.746769 1162.845825 C 36.182068 1146.914063 15.039772 1130.084229 4.791924 1100.066406 C -0.115558 1077.137695 0.229671 1053.427246 0.571437 1029.95459 C 0.639602 1025.272949 0.707629 1020.600952 0.733816 1015.946289 C 0.733337 1008.883057 0.728642 1001.819702 0.71997 994.756104 C 0.715658 980.003174 0.754849 965.251099 0.82657 950.498413 C 0.91578 931.63916 0.90706 912.781494 0.867103 893.922119 C 0.845208 879.354492 0.869786 864.787231 0.908737 850.219727 C 0.92287 843.267456 0.92402 836.314819 0.911659 829.362305 C 0.902461 819.633423 0.954587 809.906372 1.022812 800.177734 L 0.97998 791.575073 C 1.329774 761.387939 9.790466 736.921753 30.550196 714.740723 C 37.318359 708.889038 44.484467 704.245728 52.136715 699.630249 L 58.850307 695.427246 C 89.841255 676.214478 121.361046 657.821289 152.758713 639.283325 C 176.561905 625.227661 200.258209 611.016235 223.847656 596.603638 L 232.673157 591.213989 C 238.153732 587.866089 243.633911 584.517334 249.113708 581.168091 L 249.116257 581.166504 C 329.349365 532.200806 354.996429 516.548584 378.847351 518.925049 C 390.053802 520.041504 400.863739 525.138062 416.752686 532.62915 Z M 1786.564453 571.631958 C 1805.042236 583.217163 1823.721191 594.447998 1842.444214 605.630859 C 1882.2771 629.463379 1922.034424 653.414307 1961.633057 677.634399 C 1969.582153 682.487549 1977.552246 687.303223 1985.528564 692.111816 C 2015.046021 710.143188 2036.842285 727.390869 2046.338745 761.838623 C 2047.652222 772.916504 2047.691284 783.885864 2047.657104 795.032471 L 2047.737671 804.820679 C 2047.810791 815.440796 2047.814209 826.059692 2047.810547 836.680054 C 2047.832764 844.10144 2047.857056 851.522705 2047.882935 858.943848 C 2047.925049 874.478882 2047.930054 890.013428 2047.911621 905.548462 C 2047.893188 925.404297 2047.989258 945.257568 2048.116211 965.112915 C 2048.19751 980.434814 2048.206543 995.756104 2048.195068 1011.078247 C 2048.200195 1018.396362 2048.230469 1025.714355 2048.286377 1033.032227 C 2048.356201 1043.288574 2048.325684 1053.540405 2048.270508 1063.796997 L 2048.396484 1072.855103 C 2048.098145 1096.883057 2041.281372 1117.364502 2025.004272 1135.469727 C 2007.556519 1152.062012 1986.092285 1163.718384 1965.487305 1175.907349 C 1961.611938 1178.225586 1957.738403 1180.546631 1953.866211 1182.870117 C 1945.822388 1187.694092 1937.771606 1192.506592 1929.716187 1197.311523 C 1912.289063 1207.721069 1894.960449 1218.292725 1877.624023 1228.852783 C 1868.512939 1234.397217 1859.390869 1239.923096 1850.269287 1245.450195 C 1837.120605 1253.419678 1823.989624 1261.417114 1810.873901 1269.440674 C 1805.240479 1272.867554 1799.606934 1276.293457 1793.972534 1279.718994 L 1786.398926 1284.383545 C 1758.337402 1301.376587 1730.490845 1307.07373 1697.814575 1301.894165 C 1649.535645 1285.046631 1614.438477 1244.408691 1589.489502 1201.418701 C 1586.176636 1195.803833 1582.860718 1190.190674 1579.54248 1184.578735 L 1574.349731 1175.764771 C 1565.599243 1161.01123 1556.637573 1146.387695 1547.690063 1131.753174 C 1526.283325 1096.658203 1505.122681 1061.418213 1484.003662 1026.149414 C 1471.986328 1006.086426 1459.947754 986.036499 1447.912842 965.983765 C 1439.091919 951.284302 1430.273438 936.583496 1421.470215 921.873291 L 1416.94519 914.317261 C 1413.984863 909.374023 1411.026611 904.429688 1408.069946 899.484131 C 1399.770142 885.632446 1391.395874 871.829468 1382.939087 858.072998 C 1378.031738 850.089233 1373.137573 842.09729 1368.242798 834.105591 C 1365.835083 830.18457 1363.420776 826.267822 1360.999023 822.355591 C 1357.594116 816.85437 1354.212769 811.339233 1350.835693 805.821289 L 1344.88562 796.170166 C 1333.895142 775.980103 1329.119873 755.793701 1335.418457 733.346924 C 1349.651367 700.267212 1385.086304 682.092407 1414.638672 664.699341 C 1418.527344 662.379639 1422.414551 660.057007 1426.299561 657.731201 C 1434.335938 652.923584 1442.379883 648.129639 1450.429565 643.34436 C 1465.288208 634.495728 1480.0448 625.483276 1494.805298 616.472412 C 1529.239746 595.46228 1563.784912 574.632568 1598.415649 553.947876 C 1602.900513 551.266479 1607.382202 548.579346 1611.860596 545.887085 C 1618.098389 542.138916 1624.348389 538.411743 1630.601929 534.689575 L 1636.219116 531.29834 C 1683.2677 503.456055 1727.697632 532.866455 1768.418945 559.822144 C 1774.552979 563.882568 1780.602661 567.887207 1786.564453 571.631958 Z M 1023.333862 167.620605 L 1031.907104 167.375244 C 1059.559814 170.319336 1081.604614 186.294067 1104.577759 200.7854 C 1108.206665 203.050903 1111.837036 205.313721 1115.469116 207.574097 C 1121.030762 211.035889 1126.591187 214.49939 1132.146484 217.971069 C 1149.490845 228.809326 1166.957031 239.441772 1184.447876 250.041992 C 1220.838867 272.156494 1257.155518 294.387451 1293.358521 316.808228 C 1300.998291 321.521973 1308.664917 326.186523 1316.346313 330.832031 C 1343.885986 347.67981 1364.424561 364.401245 1377.549072 394.475464 C 1378.766357 404.796753 1378.766357 404.796753 1378.817627 416.103271 L 1378.883057 422.392822 C 1378.940186 429.203857 1378.928345 436.012939 1378.910522 442.824219 C 1378.924927 447.594482 1378.941528 452.364746 1378.960205 457.134888 C 1378.988281 467.116699 1378.980835 477.0979 1378.949463 487.079712 C 1378.913574 499.819214 1378.976929 512.556152 1379.068604 525.295532 C 1379.126465 535.144043 1379.125244 544.991821 1379.107422 554.840454 C 1379.106812 559.53479 1379.12561 564.228882 1379.165039 568.922729 C 1379.372559 597.945313 1378.425903 619.55542 1359.568481 642.977905 C 1339.631836 660.494385 1317.421997 673.723755 1294.686157 687.230347 C 1277.737427 697.301025 1261.276245 708.059204 1244.804199 718.886353 C 1232.885376 726.239502 1224.342041 727.699219 1210.61438 727.762329 L 1200.437622 727.830322 L 1189.271851 727.855957 L 1177.511108 727.918457 C 1164.635132 727.980591 1151.759277 728.017212 1138.883057 728.04834 C 1134.444702 728.061035 1130.006226 728.074097 1125.567871 728.087036 C 1104.709229 728.146851 1083.85022 728.191772 1062.991455 728.217773 C 1038.94519 728.248413 1014.899963 728.331055 990.854004 728.45813 C 972.249084 728.552734 953.644409 728.599121 935.039307 728.609497 C 923.936584 728.616943 912.834961 728.64502 901.732605 728.724121 C 889.331299 728.811157 876.931274 728.797729 864.529541 728.775879 L 853.460022 728.897705 C 831.907959 728.759766 818.26001 726.033447 799.815308 714.740723 L 791.120911 709.62854 L 783.355591 704.671143 L 774.585999 699.084473 L 765.669312 693.350464 L 756.826172 687.726929 C 684.418518 641.424438 684.418518 641.424438 674.220947 611.12561 C 673.33905 601.104736 673.33905 601.104736 673.209106 589.665527 L 673.114624 583.315308 C 673.023315 576.415649 672.980225 569.517212 672.945435 562.617188 L 672.891541 555.431641 C 672.797607 542.874878 672.739624 530.318726 672.712402 517.761597 C 672.678101 504.863281 672.527283 491.968994 672.348328 479.072144 C 672.230652 469.091431 672.198608 459.111572 672.189026 449.130249 C 672.170227 444.379761 672.120178 439.629395 672.037231 434.879639 C 671.562988 405.673218 673.481934 382.986084 693.06012 359.937012 C 701.713928 351.544556 701.713928 351.544556 710.537842 345.365967 L 720.486328 338.380981 C 737.145081 327.48938 754.118347 317.281982 771.360291 307.34436 C 778.869385 302.965332 786.367981 298.568481 793.86676 294.171631 C 795.719299 293.087891 797.572021 292.004395 799.480774 290.887573 C 816.241333 281.065552 832.785217 270.918457 849.268005 260.638916 C 997.963135 168.050049 997.963135 168.050049 1023.333862 167.620605 Z M 1368.129517 58.51062 C 1362.495117 47.242065 1354.393799 41.705688 1343.01062 36.531494 C 1324.310181 34.891113 1314.717163 37.193359 1300.876221 49.644531 L 1292.417236 58.1427 C 1287.598755 62.95752 1282.78772 67.778687 1277.998901 72.622925 L 1272.952515 77.742188 C 1266.157349 84.622803 1259.364746 91.505493 1252.5802 98.396606 C 1243.44458 107.712402 1234.302734 117.005493 1224.979248 126.134033 C 1220.290039 130.688599 1215.627319 135.270874 1210.99939 139.887695 L 1204.856934 146.03418 C 1197.438232 153.019287 1190.837891 159.365479 1186.0177 168.40564 C 1183.349487 184.157104 1183.346069 195.796631 1192.297485 209.223755 C 1201.947754 216.900146 1208.414917 221.449829 1220.752441 222.960693 C 1238.703857 220.669067 1248.529541 213.740479 1261.090454 201.316284 L 1266.819946 195.499146 C 1270.935547 191.386841 1275.04834 187.271729 1279.158691 183.154297 C 1285.542603 176.691406 1291.927856 170.231689 1298.356567 163.81311 C 1322.462402 139.786499 1349.629517 115.532959 1368.129517 86.769287 C 1370.524902 76.518188 1370.829224 68.693359 1368.129517 58.51062 Z M 727.598572 36.531494 C 746.522461 45.358521 758.526794 57.422241 772.341492 72.836182 C 794.284363 96.801025 816.98877 119.834595 840.256226 142.514771 L 847.575439 149.72583 L 854.080566 156.070801 C 862.739441 165.794556 865.550903 172.469727 866.733521 185.478516 C 865.664795 197.662109 864.117371 203.021973 856.332642 212.363647 C 842.579956 221.427856 831.769287 225.03418 815.514587 221.783081 C 788.225586 201.41687 764.537964 174.531006 740.506042 150.496338 C 733.820618 143.817871 727.110352 137.165161 720.398926 130.512573 C 716.125061 126.248169 711.852722 121.982056 707.58197 117.714111 L 701.526794 111.727417 L 695.930176 106.101318 L 691.019531 101.204346 C 681.516296 89.960693 678.957153 79.723633 679.261902 64.900757 C 681.485046 53.432739 687.958862 47.716187 696.200012 39.671387 C 706.196411 34.673218 716.790283 34.584351 727.598572 36.531494 Z"/>
</svg>
